<?xml version="1.0" standalone="no"?>
<!DOCTYPE svg PUBLIC "-//W3C//DTD SVG 20010904//EN"
 "http://www.w3.org/TR/2001/REC-SVG-20010904/DTD/svg10.dtd">
<svg version="1.0" xmlns="http://www.w3.org/2000/svg"
 width="500.000000pt" height="500.000000pt" viewBox="0 0 500.000000 500.000000"
 preserveAspectRatio="xMidYMid meet">

<g transform="translate(0.000000,500.000000) scale(0.100000,-0.100000)"
fill="#000000" stroke="none">
<path d="M2270 4189 c-154 -17 -291 -49 -455 -106 -92 -31 -319 -145 -352
-175 -12 -12 -27 -17 -34 -13 -7 5 -10 4 -6 -2 6 -9 -43 -53 -59 -53 -14 0
-135 -104 -190 -163 -136 -146 -216 -261 -300 -427 -138 -273 -203 -610 -176
-917 22 -255 70 -430 177 -648 426 -870 1488 -1230 2363 -803 492 240 842 687
953 1215 44 211 44 523 -1 728 -20 91 -32 141 -40 160 -5 11 -11 33 -15 48 -3
16 -10 25 -16 21 -7 -4 -9 1 -5 14 4 11 2 23 -4 27 -5 3 -10 15 -10 25 0 10
-4 20 -9 22 -5 2 -25 37 -45 78 -60 126 -185 306 -280 406 -41 42 -47 46 -63
33 -16 -12 -17 -12 -6 2 10 12 5 22 -28 57 -22 24 -44 40 -49 37 -5 -3 -8 0
-5 7 5 13 -52 54 -68 50 -5 -2 -6 2 -2 7 3 6 -9 18 -27 27 -18 9 -43 26 -55
37 -13 11 -23 17 -23 14 0 -4 -9 2 -21 14 -11 11 -35 27 -52 35 -18 8 -56 28
-86 45 -37 20 -57 26 -66 19 -15 -13 -81 6 -108 31 -12 10 -26 19 -31 20 -6 0
-2 4 9 9 12 5 -3 6 -38 3 -49 -5 -60 -3 -71 13 -8 10 -12 22 -10 25 6 10 -26
20 -37 13 -6 -3 -22 2 -37 12 -20 13 -24 14 -15 2 11 -13 6 -15 -42 -14 -48 0
-52 2 -32 13 20 10 18 11 -18 9 -22 -2 -32 -2 -22 1 27 7 20 23 -11 23 -15 0
-42 4 -60 10 -20 5 -52 6 -79 1 -31 -6 -61 -4 -96 5 -57 15 -131 16 -247 3z
m794 -135 c23 -9 20 -24 -5 -24 -11 0 -18 4 -14 9 3 5 -5 12 -17 14 -22 4 -23
4 -1 6 12 0 28 -2 37 -5z m186 -58 c0 -11 -19 -15 -25 -6 -3 5 1 10 9 10 9 0
16 -2 16 -4z m130 -76 c0 -5 -2 -10 -4 -10 -3 0 -8 5 -11 10 -3 6 -1 10 4 10
6 0 11 -4 11 -10z m-561 -158 c5 -9 6 -32 4 -50 -7 -43 -41 -66 -83 -57 -30 7
-37 1 -128 -94 -81 -84 -102 -101 -127 -101 -19 0 -39 -10 -54 -25 -47 -50
-126 -19 -126 49 0 31 -11 46 -89 126 l-89 90 -103 0 c-94 0 -104 -2 -114 -21
-37 -68 -148 -17 -120 55 19 51 68 59 108 19 26 -27 31 -28 136 -30 l109 -2
97 -96 c59 -59 100 -93 104 -86 4 6 21 11 37 11 25 0 35 8 61 50 17 28 34 50
38 50 20 0 15 -17 -16 -65 -31 -47 -34 -55 -23 -79 22 -47 47 -34 156 81 57
59 101 108 100 110 -5 5 -51 11 -84 12 -52 1 -38 21 15 21 55 0 72 9 75 38 0
11 4 19 7 17 4 -2 20 0 36 4 32 9 59 -1 73 -27z m-406 16 c-2 -5 1 -8 6 -8 6
0 10 -3 10 -7 -4 -24 6 -30 54 -32 64 -3 75 -12 53 -46 -19 -29 -40 -24 -31 6
10 32 -60 22 -95 -12 -31 -31 -71 -30 -95 4 -21 31 -19 54 10 82 18 19 33 24
59 23 19 -2 32 -6 29 -10z m267 -274 l0 -34 130 0 c110 0 130 2 130 15 0 9 16
23 35 32 28 13 39 14 60 5 35 -16 52 -56 38 -91 -9 -25 -6 -33 24 -70 32 -37
39 -41 82 -41 57 0 71 -12 71 -62 0 -27 4 -38 15 -38 18 0 35 -31 35 -64 0
-25 -41 -66 -65 -66 -7 0 -23 8 -34 18 -31 24 -31 79 -2 103 17 14 22 27 19
51 -3 32 -4 33 -55 36 -47 3 -54 7 -87 46 -28 34 -42 43 -68 44 -22 0 -40 9
-55 26 -22 25 -25 26 -152 26 -119 0 -131 2 -141 19 -11 22 -14 74 -4 84 13
13 24 -5 24 -39z m-510 6 c42 -42 16 -100 -45 -100 -26 0 -39 6 -51 25 -23 35
-56 32 -97 -10 l-34 -35 -142 0 -143 0 -29 -31 c-18 -20 -29 -42 -29 -60 0
-16 -4 -29 -10 -29 -5 0 -10 14 -10 30 0 21 -9 38 -26 54 -49 41 -26 105 38
106 17 0 34 -9 46 -25 19 -24 23 -25 155 -25 l134 0 39 40 c29 30 47 40 70 40
18 0 38 8 49 20 10 11 29 20 42 20 12 0 32 -9 43 -20z m839 -216 c12 -15 21
-35 21 -45 0 -10 6 -22 14 -26 9 -5 16 -28 18 -58 3 -43 6 -50 28 -55 33 -8
55 -52 40 -80 -41 -77 -144 -26 -105 53 17 35 20 113 4 122 -5 4 -24 1 -40 -6
-26 -10 -34 -9 -57 8 -34 26 -40 65 -13 92 29 29 65 27 90 -5z m-418 -58 c87
-16 143 -51 219 -133 108 -117 143 -169 136 -199 l-7 -27 -137 7 c-75 4 -137
8 -138 9 -1 1 -5 24 -9 51 -7 45 -6 48 10 39 15 -9 22 -2 47 44 l29 54 -20 27
c-27 39 -51 58 -106 88 -45 24 -57 26 -127 21 -69 -5 -83 -9 -127 -41 -27 -20
-51 -43 -54 -51 -10 -24 30 -120 47 -117 19 3 19 0 4 -49 l-11 -39 -56 0 c-31
0 -61 4 -67 8 -11 6 -34 214 -34 299 l0 36 168 -7 c92 -4 197 -13 233 -20z
m-467 -38 c3 -29 6 -101 6 -161 l0 -107 -52 5 c-227 23 -244 25 -268 44 -21
15 -25 27 -25 67 1 68 44 160 82 175 36 14 124 26 194 28 l56 1 7 -52z m492
-21 c23 -27 24 -36 24 -158 l0 -131 -27 6 c-16 3 -76 8 -136 12 l-107 6 6 52
c3 28 10 67 15 86 5 19 9 52 9 73 0 27 7 45 26 64 23 23 31 25 96 21 62 -3 73
-7 94 -31z m-913 -276 c14 -14 -21 -109 -46 -126 -12 -8 -37 -15 -56 -15 l-34
0 7 43 c4 23 11 59 17 81 l10 39 47 -7 c25 -3 50 -10 55 -15z m1660 -141 c30
-59 27 -66 -28 -56 -45 9 -95 56 -95 91 0 25 2 26 48 23 46 -3 48 -4 75 -58z
m-1447 -71 c61 -16 138 -89 154 -147 13 -52 10 -114 -7 -120 -9 -2 -13 10 -13
40 -1 87 -70 180 -145 194 -130 24 -245 -62 -245 -184 0 -32 -4 -42 -16 -42
-14 0 -16 9 -11 60 3 33 13 74 24 91 35 60 127 117 191 119 13 0 43 -5 68 -11z
m1232 -1 c85 -21 168 -135 160 -219 -2 -23 -9 -35 -21 -37 -15 -3 -18 0 -12
17 10 33 -21 123 -52 153 -49 45 -90 61 -154 56 -107 -8 -179 -84 -179 -188 0
-70 -24 -63 -28 8 -5 85 46 160 138 201 52 24 83 26 148 9z m-1238 -113 c16
-9 36 -29 45 -45 24 -46 18 -110 -10 -110 -8 0 -17 -4 -20 -10 -3 -6 1 -7 9
-4 27 11 17 -4 -18 -25 -91 -56 -194 20 -165 122 23 78 89 108 159 72z m1251
-21 c37 -35 47 -85 26 -129 -16 -33 -68 -65 -107 -65 -53 0 -110 57 -110 110
0 35 28 84 58 103 38 25 96 16 133 -19z m-448 -360 c88 -30 129 -109 113 -219
-13 -80 -92 -144 -180 -145 l-40 0 27 28 c31 32 33 44 12 62 -20 16 -19 30 2
30 29 0 53 31 53 70 0 52 -26 73 -101 78 -69 5 -79 -2 -79 -55 0 -32 -2 -33
-40 -33 -52 0 -57 -15 -26 -70 l25 -44 -26 -43 c-32 -55 -26 -73 27 -73 l40 0
0 -53 c0 -63 -11 -77 -61 -77 -69 0 -69 2 -69 280 0 213 2 251 16 264 22 23
241 23 307 0z m767 -23 c5 -11 10 -38 10 -60 0 -41 0 -41 38 -41 45 0 62 -14
62 -50 0 -36 -17 -50 -62 -50 l-38 0 0 -99 c0 -105 5 -116 49 -104 47 12 70
-56 31 -92 -29 -26 -110 -32 -144 -10 -45 30 -57 67 -63 191 -6 113 -6 113
-32 116 -24 3 -26 7 -26 48 0 42 2 45 28 48 25 3 27 6 27 51 0 58 12 71 67 71
32 0 45 -5 53 -19z m-1821 -118 c29 -22 29 -22 34 -2 5 17 12 20 54 17 l48 -3
3 -199 c3 -242 -5 -279 -73 -326 -24 -17 -49 -30 -55 -30 -7 0 -10 -6 -7 -14
4 -10 -2 -13 -23 -12 -34 1 -41 -17 -9 -24 12 -3 27 -13 33 -23 9 -15 7 -21
-8 -33 -25 -18 -37 -18 -62 1 -18 14 -16 15 19 9 47 -8 52 16 7 33 -18 7 -30
18 -30 30 0 15 -9 18 -45 19 -54 2 -126 27 -150 54 -16 18 -16 20 5 50 25 34
28 35 111 5 38 -13 54 -14 87 -6 45 13 82 51 82 86 l0 22 -47 -23 c-58 -30
-106 -30 -163 -1 -68 34 -103 85 -108 157 -2 33 -2 74 2 93 8 41 68 114 110
133 46 21 148 13 185 -13z m529 8 c36 -18 142 -125 142 -142 0 -22 -37 -5 -59
26 -26 38 -71 52 -51 16 5 -11 15 -23 20 -26 19 -12 10 -25 -18 -25 -19 0 -39
11 -63 36 -30 32 -38 35 -72 31 -45 -6 -74 -29 -94 -75 -18 -43 -2 -105 33
-128 33 -22 94 -23 127 -1 29 19 38 53 12 43 -20 -7 -19 0 6 35 15 21 29 29
51 29 30 0 30 0 14 -25 -20 -30 -20 -35 -2 -35 8 0 24 14 36 30 12 17 28 30
36 30 19 0 18 -14 -2 -31 -9 -7 -13 -21 -10 -33 8 -34 -34 -97 -88 -131 -44
-26 -58 -30 -122 -29 -61 0 -79 4 -113 27 -79 52 -115 144 -97 243 9 43 98
139 137 147 62 12 141 6 177 -12z m982 -1 c69 -35 124 -153 100 -215 l-10 -25
-141 0 c-153 0 -162 -5 -99 -47 38 -26 74 -29 110 -8 39 22 87 19 101 -6 41
-78 -142 -142 -257 -90 -130 59 -165 239 -66 345 61 65 183 87 262 46z m508
-9 l33 -28 -31 -27 c-17 -14 -40 -26 -51 -26 -16 0 -17 3 -7 25 8 19 8 31 0
50 -15 34 -15 35 6 35 9 -1 32 -14 50 -29z m-1120 -74 c34 -25 72 -70 72 -84
0 -4 -22 -29 -49 -55 -42 -41 -56 -48 -89 -48 -21 0 -42 3 -45 6 -4 4 5 28 19
54 l25 46 -25 45 c-14 24 -26 47 -26 52 0 4 19 7 43 7 30 0 53 -7 75 -23z
m-288 -522 c0 -30 -4 -55 -10 -55 -5 0 -21 17 -35 37 l-25 38 0 -38 c0 -20 -4
-37 -10 -37 -5 0 -10 23 -10 50 0 28 4 50 9 50 5 0 21 -15 35 -32 l26 -33 0
31 c0 27 6 44 17 44 2 0 3 -25 3 -55z m796 40 c18 -15 18 -15 -7 -9 -36 8 -47
-13 -14 -26 31 -12 42 -35 25 -55 -16 -19 -31 -19 -56 0 -18 14 -17 14 12 9
41 -8 52 11 17 28 -31 15 -42 46 -21 59 18 12 21 11 44 -6z m-985 -7 c0 -7 1
-32 3 -54 1 -30 -1 -41 -10 -37 -12 5 -22 55 -16 86 4 19 22 23 23 5z m-343
-20 c20 -20 14 -38 -13 -38 -14 0 -25 -4 -25 -10 0 -5 12 -10 28 -10 23 -1 24
-2 10 -11 -25 -14 -58 6 -58 34 0 24 17 47 35 47 6 0 16 -5 23 -12z m210 0
c28 -28 3 -85 -31 -72 -11 4 -17 -2 -20 -18 -2 -13 -5 3 -6 34 -1 56 0 59 40
67 3 0 10 -4 17 -11z m80 0 c22 -22 13 -38 -19 -38 -19 0 -28 -4 -23 -11 3 -6
17 -9 30 -6 27 5 33 -8 8 -17 -24 -9 -54 12 -54 37 0 24 17 47 35 47 6 0 16
-5 23 -12z m327 -8 c17 -18 17 -21 1 -45 -18 -27 -35 -32 -54 -13 -24 24 -8
78 23 78 7 0 20 -9 30 -20z m72 3 c3 -7 -4 -9 -18 -6 -15 4 -20 3 -15 -5 4 -7
14 -12 22 -12 19 0 18 -36 -2 -44 -17 -7 -34 0 -34 14 0 4 10 6 23 3 22 -5 22
-5 -2 15 -16 13 -22 25 -18 36 8 19 38 18 44 -1z m81 5 c36 -36 -11 -96 -49
-62 -23 21 -24 37 -3 58 19 19 36 20 52 4z m122 -3 c11 -13 9 -15 -11 -13 -18
2 -24 -2 -24 -17 0 -15 6 -19 24 -17 20 2 22 0 11 -13 -7 -8 -16 -15 -21 -15
-12 0 -39 30 -39 45 0 15 27 45 39 45 5 0 14 -7 21 -15z m78 3 c20 -20 15 -65
-9 -71 -11 -3 -27 -3 -35 0 -22 8 -12 38 14 41 28 4 29 22 1 22 -11 0 -17 5
-14 10 8 14 28 13 43 -2z m72 2 c0 -4 -7 -10 -15 -14 -9 -3 -16 -19 -16 -38
-2 -32 -2 -31 -8 7 -4 22 -6 42 -5 45 4 9 44 9 44 0z m43 -7 c-7 -3 -13 -18
-13 -34 0 -16 -4 -29 -10 -29 -5 0 -10 15 -10 34 0 25 5 36 18 38 20 5 32 -3
15 -9z m80 -4 c18 -25 11 -56 -15 -64 -38 -13 -66 43 -36 73 18 18 35 15 51
-9z m225 -47 c11 2 19 17 23 38 6 34 6 33 8 -10 1 -42 -1 -46 -24 -48 -28 -2
-47 29 -40 64 6 32 8 30 12 -9 3 -29 8 -37 21 -35z m100 56 c19 -19 15 -65 -5
-70 -44 -12 -58 20 -21 46 l22 16 -24 0 c-20 0 -22 2 -10 10 19 13 24 12 38
-2z m130 0 c28 -28 3 -85 -31 -72 -11 4 -17 -2 -20 -18 -2 -13 -5 3 -6 34 -1
56 0 59 40 67 3 0 10 -4 17 -11z m80 0 c20 -20 15 -66 -8 -73 -26 -8 -40 1
-40 26 0 12 7 19 20 19 11 0 20 5 20 11 0 6 -9 9 -20 6 -22 -6 -28 8 -7 16 19
8 22 8 35 -5z m85 6 c3 -4 -3 -18 -14 -33 l-21 -26 21 -3 c27 -4 17 -22 -13
-22 -34 0 -38 10 -15 41 l20 29 -21 0 c-12 0 -18 5 -15 10 7 11 48 14 58 4z
m-1727 -64 c9 0 14 11 14 30 0 17 5 30 10 30 6 0 10 -17 10 -38 0 -35 -2 -38
-27 -37 -26 0 -28 3 -29 40 -1 32 -1 34 3 8 3 -20 10 -33 19 -33z m329 1 c3
-5 1 -12 -5 -16 -5 -3 -10 1 -10 9 0 18 6 21 15 7z m825 -5 c0 -3 -4 -8 -10
-11 -5 -3 -10 -1 -10 4 0 6 5 11 10 11 6 0 10 -2 10 -4z m610 -6 c0 -5 -2 -10
-4 -10 -3 0 -8 5 -11 10 -3 6 -1 10 4 10 6 0 11 -4 11 -10z"/>
<path d="M1847 3720 c3 -11 9 -17 14 -14 5 3 6 -3 2 -13 -6 -16 -5 -16 10 -4
12 9 14 17 7 26 -5 6 -7 15 -3 18 3 4 -3 7 -14 7 -16 0 -20 -5 -16 -20z"/>
<path d="M1826 3702 c-3 -6 -1 -14 5 -17 15 -10 25 3 12 16 -7 7 -13 7 -17 1z"/>
<path d="M2344 3496 c-12 -31 0 -51 31 -51 27 0 30 3 30 30 0 25 -4 30 -28 33
-17 2 -29 -2 -33 -12z"/>
<path d="M2336 3735 c-8 -22 2 -42 25 -48 22 -6 39 17 32 44 -6 23 -48 26 -57
4z"/>
<path d="M2982 3478 c-16 -16 -15 -33 3 -48 19 -15 52 -4 52 18 1 36 -31 54
-55 30z"/>
<path d="M3216 3182 c-11 -10 -6 -39 7 -51 21 -17 56 12 41 35 -10 17 -38 27
-48 16z"/>
<path d="M2101 3486 c-9 -11 -10 -20 -1 -36 16 -29 54 -23 58 9 6 37 -34 55
-57 27z"/>
<path d="M1557 3416 c-11 -28 4 -47 32 -44 20 2 26 8 26 28 0 20 -6 26 -26 28
-17 2 -29 -3 -32 -12z"/>
<path d="M2937 3283 c-4 -3 -7 -17 -7 -29 0 -29 36 -42 57 -21 21 21 8 57 -21
57 -12 0 -26 -3 -29 -7z"/>
<path d="M3046 3074 c-9 -8 -16 -19 -16 -23 0 -16 29 -32 52 -29 29 4 36 37
12 55 -23 17 -29 16 -48 -3z"/>
<path d="M2450 3130 c0 -13 5 -20 13 -17 6 2 12 10 12 17 0 7 -6 15 -12 18 -8
2 -13 -5 -13 -18z"/>
<path d="M2570 3120 c0 -13 5 -20 13 -17 6 2 12 10 12 17 0 7 -6 15 -12 18 -8
2 -13 -5 -13 -18z"/>
<path d="M2488 3083 c-22 -5 -22 -12 -2 -41 19 -27 11 -42 -21 -42 -18 0 -26
7 -31 26 -5 18 -10 22 -17 15 -8 -8 -4 -20 11 -41 12 -16 27 -41 32 -55 9 -23
25 -30 60 -25 21 3 90 78 90 98 0 13 -4 11 -16 -6 -17 -24 -43 -29 -62 -10 -9
9 -7 17 10 35 13 14 18 27 12 32 -13 12 -46 19 -66 14z m46 -105 c7 -12 6 -21
-3 -32 -19 -22 -38 -20 -52 6 -10 18 -8 24 7 35 21 15 34 13 48 -9z"/>
<path d="M1900 2420 c-9 -6 -10 -10 -3 -10 6 0 15 5 18 10 8 12 4 12 -15 0z"/>
<path d="M1513 1946 c-24 -21 -28 -32 -28 -75 0 -38 5 -56 21 -72 27 -26 99
-35 134 -17 53 28 58 138 7 173 -34 24 -101 19 -134 -9z"/>
<path d="M3005 1955 c-45 -44 -35 -53 58 -50 45 2 85 3 90 4 12 2 -21 58 -38
65 -37 14 -86 6 -110 -19z"/>
<path d="M1700 1450 c0 -5 9 -10 21 -10 11 0 17 5 14 10 -3 6 -13 10 -21 10
-8 0 -14 -4 -14 -10z"/>
<path d="M1904 1445 c-7 -18 3 -35 21 -35 15 0 28 27 19 41 -8 14 -34 11 -40
-6z"/>
<path d="M1990 1450 c0 -5 9 -10 21 -10 11 0 17 5 14 10 -3 6 -13 10 -21 10
-8 0 -14 -4 -14 -10z"/>
<path d="M2304 1445 c-4 -9 -2 -21 4 -27 15 -15 44 -1 40 19 -4 23 -36 29 -44
8z"/>
<path d="M2464 1445 c-4 -9 -2 -21 4 -27 15 -15 44 -1 40 19 -4 23 -36 29 -44
8z"/>
<path d="M2670 1420 c0 -5 7 -10 15 -10 8 0 15 5 15 10 0 6 -7 10 -15 10 -8 0
-15 -4 -15 -10z"/>
<path d="M2854 1445 c-4 -9 -2 -21 4 -27 15 -15 44 -1 40 19 -4 23 -36 29 -44
8z"/>
<path d="M3195 1420 c-3 -5 1 -10 9 -10 9 0 16 5 16 10 0 6 -4 10 -9 10 -6 0
-13 -4 -16 -10z"/>
<path d="M3314 1445 c-4 -9 -2 -21 4 -27 15 -15 44 -1 40 19 -4 23 -36 29 -44
8z"/>
<path d="M3405 1420 c-3 -5 1 -10 9 -10 9 0 16 5 16 10 0 6 -4 10 -9 10 -6 0
-13 -4 -16 -10z"/>
<path d="M3000 4100 c0 -6 7 -10 15 -10 8 0 15 2 15 4 0 2 -7 6 -15 10 -8 3
-15 1 -15 -4z"/>
<path d="M3111 4060 c-10 -5 -9 -8 2 -13 7 -3 19 -2 26 3 10 5 9 8 -2 13 -7 3
-19 2 -26 -3z"/>
</g>
</svg>
